M48
;GenerationSoftware,Autodesk,EAGLE,9.6.2*%
;CreationDate,2020-07-01T16:10:40Z*%
FMAT,2
ICI,OFF
METRIC,TZ,000.000
T2C0.381
T1C3.048
%
G90
M71
T1
X112522Y112522
X16510Y16510
X8890Y8890
X42418Y16510
X34798Y8890
X68326Y16510
X60706Y8890
X94234Y16510
X86614Y8890
X120142Y16510
X112522Y8890
X16510Y42418
X8890Y34798
X42418Y42418
X34798Y34798
X68326Y42418
X60706Y34798
X94234Y42418
X86614Y34798
X120142Y42418
X112522Y34798
X16510Y68326
X8890Y60706
X42418Y68326
X34798Y60706
X68326Y68326
X60706Y60706
X94234Y68326
X86614Y60706
X120142Y68326
X112522Y60706
X16510Y94234
X8890Y86614
X42418Y94234
X34798Y86614
X68326Y94234
X60706Y86614
X94234Y94234
X86614Y86614
X120142Y94234
X112522Y86614
X16510Y120142
X8890Y112522
X42418Y120142
X34798Y112522
X68326Y120142
X60706Y112522
X94234Y120142
X86614Y112522
X120142Y120142
T2
X86487Y12192
X94774Y12097
X89504Y8667
X90932Y7493
X88900Y3683
X81280Y14224
X91948Y21717
X99441Y11176
X85979Y13208
X95885Y12192
X111595Y11176
X119888Y11303
X114808Y11430
X117856Y7747
X114832Y17907
X112395Y12192
X120682Y12097
X115412Y8667
X116840Y7493
X114808Y3683
X107188Y14224
X117856Y21717
X125349Y11176
X111887Y13208
X121793Y12192
X7963Y37084
X16256Y37211
X11176Y37338
X14224Y33655
X11200Y43815
X8763Y38100
X17050Y38005
X11780Y34575
X13208Y33401
X11176Y29591
X3556Y40132
X14224Y47625
X21717Y37084
X8255Y39116
X18161Y38100
X33871Y37084
X42164Y37211
X37084Y37338
X40132Y33655
X37108Y43815
X34671Y38100
X42958Y38005
X37688Y34575
X39116Y33401
X37084Y29591
X29464Y40132
X40132Y47625
X47625Y37084
X34163Y39116
X44069Y38100
X59779Y37084
X68072Y37211
X62992Y37338
X66040Y33655
X63016Y43815
X60579Y38100
X68866Y38005
X63596Y34575
X65024Y33401
X62992Y29591
X55372Y40132
X66040Y47625
X73533Y37084
X60071Y39116
X69977Y38100
X85687Y37084
X93980Y37211
X88900Y37338
X91948Y33655
X88924Y43815
X86487Y38100
X94774Y38005
X89504Y34575
X90932Y33401
X88900Y29591
X81280Y40132
X91948Y47625
X99441Y37084
X85979Y39116
X95885Y38100
X111595Y37084
X119888Y37211
X114808Y37338
X117856Y33655
X114832Y43815
X112395Y38100
X120682Y38005
X115412Y34575
X116840Y33401
X114808Y29591
X107188Y40132
X117856Y47625
X125349Y37084
X111887Y39116
X121793Y38100
X7963Y62992
X16256Y63119
X11176Y63246
X14224Y59563
X11200Y69723
X8763Y64008
X17050Y63913
X11780Y60483
X13208Y59309
X11176Y55499
X3556Y66040
X14224Y73533
X21717Y62992
X8255Y65024
X18161Y64008
X33871Y62992
X42164Y63119
X37084Y63246
X40132Y59563
X37108Y69723
X34671Y64008
X42958Y63913
X37688Y60483
X39116Y59309
X37084Y55499
X29464Y66040
X40132Y73533
X47625Y62992
X34163Y65024
X44069Y64008
X59779Y62992
X68072Y63119
X62992Y63246
X66040Y59563
X63016Y69723
X60579Y64008
X68866Y63913
X63596Y60483
X65024Y59309
X62992Y55499
X55372Y66040
X66040Y73533
X73533Y62992
X60071Y65024
X69977Y64008
X85687Y62992
X93980Y63119
X88900Y63246
X91948Y59563
X88924Y69723
X86487Y64008
X94774Y63913
X89504Y60483
X90932Y59309
X88900Y55499
X81280Y66040
X91948Y73533
X99441Y62992
X85979Y65024
X95885Y64008
X111595Y62992
X119888Y63119
X114808Y63246
X117856Y59563
X114832Y69723
X112395Y64008
X120682Y63913
X115412Y60483
X116840Y59309
X114808Y55499
X107188Y66040
X117856Y73533
X125349Y62992
X111887Y65024
X121793Y64008
X7963Y88900
X16256Y89027
X11176Y89154
X14224Y85471
X11200Y95631
X8763Y89916
X17050Y89821
X11780Y86391
X13208Y85217
X11176Y81407
X3556Y91948
X14224Y99441
X21717Y88900
X8255Y90932
X18161Y89916
X33871Y88900
X42164Y89027
X37084Y89154
X40132Y85471
X37108Y95631
X34671Y89916
X42958Y89821
X37688Y86391
X39116Y85217
X37084Y81407
X29464Y91948
X40132Y99441
X47625Y88900
X34163Y90932
X44069Y89916
X59779Y88900
X68072Y89027
X62992Y89154
X66040Y85471
X63016Y95631
X60579Y89916
X68866Y89821
X63596Y86391
X65024Y85217
X62992Y81407
X55372Y91948
X66040Y99441
X73533Y88900
X60071Y90932
X69977Y89916
X85687Y88900
X93980Y89027
X88900Y89154
X91948Y85471
X88924Y95631
X86487Y89916
X94774Y89821
X89504Y86391
X90932Y85217
X88900Y81407
X81280Y91948
X91948Y99441
X99441Y88900
X85979Y90932
X95885Y89916
X111595Y88900
X119888Y89027
X114808Y89154
X117856Y85471
X114832Y95631
X112395Y89916
X120682Y89821
X115412Y86391
X116840Y85217
X114808Y81407
X107188Y91948
X117856Y99441
X125349Y88900
X111887Y90932
X121793Y89916
X7963Y114808
X16256Y114935
X11176Y115062
X14224Y111379
X11200Y121539
X8763Y115824
X17050Y115729
X11780Y112299
X13208Y111125
X11176Y107315
X3556Y117856
X14224Y125349
X21717Y114808
X8255Y116840
X18161Y115824
X33871Y114808
X42164Y114935
X37084Y115062
X7963Y11176
X37108Y121539
X34671Y115824
X42958Y115729
X37688Y112299
X39116Y111125
X37084Y107315
X29464Y117856
X40132Y125349
X47625Y114808
X34163Y116840
X44069Y115824
X59779Y114808
X68072Y114935
X62992Y115062
X66040Y111379
X63016Y121539
X60579Y115824
X68866Y115729
X63596Y112299
X65024Y111125
X62992Y107315
X55372Y117856
X66040Y125349
X73533Y114808
X60071Y116840
X69977Y115824
X85687Y114808
X93980Y114935
X88900Y115062
X91948Y111379
X88924Y121539
X86487Y115824
X94774Y115729
X89504Y112299
X90932Y111125
X88900Y107315
X81280Y117856
X91948Y125349
X99441Y114808
X85979Y116840
X95885Y115824
X111595Y114808
X119888Y114935
X114808Y115062
X117856Y111379
X114832Y121539
X112395Y115824
X120682Y115729
X115412Y112299
X116840Y111125
X114808Y107315
X107188Y117856
X40132Y111379
X125349Y114808
X111887Y116840
X121793Y115824
X16256Y11303
X11176Y11430
X14224Y7747
X11200Y17907
X8763Y12192
X17050Y12097
X11780Y8667
X13208Y7493
X11176Y3683
X3556Y14224
X14224Y21717
X21717Y11176
X8255Y13208
X18161Y12192
X33871Y11176
X42164Y11303
X37084Y11430
X40132Y7747
X37108Y17907
X34671Y12192
X42958Y12097
X37688Y8667
X39116Y7493
X37084Y3683
X29464Y14224
X40132Y21717
X47625Y11176
X34163Y13208
X44069Y12192
X59779Y11176
X68072Y11303
X62992Y11430
X66040Y7747
X63016Y17907
X60579Y12192
X68866Y12097
X63596Y8667
X65024Y7493
X62992Y3683
X55372Y14224
X66040Y21717
X73533Y11176
X60071Y13208
X69977Y12192
X85687Y11176
X93980Y11303
X88900Y11430
X91948Y7747
X88924Y17907
X117856Y125349
M30