G04 EAGLE Gerber RS-274X export*
G75*
%MOMM*%
%FSLAX34Y34*%
%LPD*%
%INSoldermask Bottom*%
%IPPOS*%
%AMOC8*
5,1,8,0,0,1.08239X$1,22.5*%
G01*
%ADD10C,3.251200*%


D10*
X165100Y165100D03*
X88900Y88900D03*
X424180Y165100D03*
X347980Y88900D03*
X683260Y165100D03*
X607060Y88900D03*
X942340Y165100D03*
X866140Y88900D03*
X1201420Y165100D03*
X1125220Y88900D03*
X165100Y424180D03*
X88900Y347980D03*
X424180Y424180D03*
X347980Y347980D03*
X683260Y424180D03*
X607060Y347980D03*
X942340Y424180D03*
X866140Y347980D03*
X1201420Y424180D03*
X1125220Y347980D03*
X165100Y683260D03*
X88900Y607060D03*
X424180Y683260D03*
X347980Y607060D03*
X683260Y683260D03*
X607060Y607060D03*
X942340Y683260D03*
X866140Y607060D03*
X1201420Y683260D03*
X1125220Y607060D03*
X165100Y942340D03*
X88900Y866140D03*
X424180Y942340D03*
X347980Y866140D03*
X683260Y942340D03*
X607060Y866140D03*
X942340Y942340D03*
X866140Y866140D03*
X1201420Y942340D03*
X1125220Y866140D03*
X165100Y1201420D03*
X88900Y1125220D03*
X424180Y1201420D03*
X347980Y1125220D03*
X683260Y1201420D03*
X607060Y1125220D03*
X942340Y1201420D03*
X866140Y1125220D03*
X1201420Y1201420D03*
X1125220Y1125220D03*
M02*
